<?xml version="1.0" encoding="utf-8" standalone="no"?>
<!DOCTYPE svg PUBLIC "-//W3C//DTD SVG 1.1//EN"
  "http://www.w3.org/Graphics/SVG/1.1/DTD/svg11.dtd">
<svg xmlns:xlink="http://www.w3.org/1999/xlink" width="748.100625pt" height="341.733632pt" viewBox="0 0 748.100625 341.733632" xmlns="http://www.w3.org/2000/svg" version="1.1">
 <metadata>
  <rdf:RDF xmlns:dc="http://purl.org/dc/elements/1.1/" xmlns:cc="http://creativecommons.org/ns#" xmlns:rdf="http://www.w3.org/1999/02/22-rdf-syntax-ns#">
   <cc:Work>
    <dc:type rdf:resource="http://purl.org/dc/dcmitype/StillImage"/>
    <dc:date>2026-06-30T12:29:32.205362</dc:date>
    <dc:format>image/svg+xml</dc:format>
    <dc:creator>
     <cc:Agent>
      <dc:title>Matplotlib v3.11.0, https://matplotlib.org/</dc:title>
     </cc:Agent>
    </dc:creator>
   </cc:Work>
  </rdf:RDF>
 </metadata>
 <defs>
  <style type="text/css">*{stroke-linejoin: round; stroke-linecap: butt}</style>
 </defs>
 <g id="figure_1">
  <g id="patch_1">
   <path d="M 0 341.733632 
L 748.100625 341.733632 
L 748.100625 0 
L 0 0 
z
" style="fill: #ffffff"/>
  </g>
  <g id="axes_1">
   <g id="patch_2">
    <path d="M 42.942969 302.091763 
L 740.900625 302.091763 
L 740.900625 34.329182 
L 42.942969 34.329182 
z
" style="fill: #ffffff"/>
   </g>
   <g id="matplotlib.axis_1">
    <g id="xtick_1">
     <g id="line2d_1">
      <defs>
       <path id="mf91fa581e5" d="M 0 0 
L 0 3.5 
" style="stroke: #000000; stroke-width: 0.8"/>
      </defs>
      <g>
       <use xlink:href="#mf91fa581e5" x="89.733426" y="302.091763" style="stroke: #000000; stroke-width: 0.8"/>
      </g>
     </g>
     <g id="text_1">
      <!-- Care -->
      <g transform="translate(72.730451 323.617448) rotate(-30) scale(0.08 -0.08)">
       <defs>
        <path id="DejaVuSans-26" d="M 4122 4306 
L 4122 3641 
Q 3803 3938 3442 4084 
Q 3081 4231 2675 4231 
Q 1875 4231 1450 3742 
Q 1025 3253 1025 2328 
Q 1025 1406 1450 917 
Q 1875 428 2675 428 
Q 3081 428 3442 575 
Q 3803 722 4122 1019 
L 4122 359 
Q 3791 134 3420 21 
Q 3050 -91 2638 -91 
Q 1578 -91 968 557 
Q 359 1206 359 2328 
Q 359 3453 968 4101 
Q 1578 4750 2638 4750 
Q 3056 4750 3426 4639 
Q 3797 4528 4122 4306 
z
" transform="scale(0.015625)"/>
        <path id="DejaVuSans-44" d="M 2194 1759 
Q 1497 1759 1228 1600 
Q 959 1441 959 1056 
Q 959 750 1161 570 
Q 1363 391 1709 391 
Q 2188 391 2477 730 
Q 2766 1069 2766 1631 
L 2766 1759 
L 2194 1759 
z
M 3341 1997 
L 3341 0 
L 2766 0 
L 2766 531 
Q 2569 213 2275 61 
Q 1981 -91 1556 -91 
Q 1019 -91 701 211 
Q 384 513 384 1019 
Q 384 1609 779 1909 
Q 1175 2209 1959 2209 
L 2766 2209 
L 2766 2266 
Q 2766 2663 2505 2880 
Q 2244 3097 1772 3097 
Q 1472 3097 1187 3025 
Q 903 2953 641 2809 
L 641 3341 
Q 956 3463 1253 3523 
Q 1550 3584 1831 3584 
Q 2591 3584 2966 3190 
Q 3341 2797 3341 1997 
z
" transform="scale(0.015625)"/>
        <path id="DejaVuSans-55" d="M 2631 2963 
Q 2534 3019 2420 3045 
Q 2306 3072 2169 3072 
Q 1681 3072 1420 2755 
Q 1159 2438 1159 1844 
L 1159 0 
L 581 0 
L 581 3500 
L 1159 3500 
L 1159 2956 
Q 1341 3275 1631 3429 
Q 1922 3584 2338 3584 
Q 2397 3584 2469 3576 
Q 2541 3569 2628 3553 
L 2631 2963 
z
" transform="scale(0.015625)"/>
        <path id="DejaVuSans-48" d="M 3597 1894 
L 3597 1613 
L 953 1613 
Q 991 1019 1311 708 
Q 1631 397 2203 397 
Q 2534 397 2845 478 
Q 3156 559 3463 722 
L 3463 178 
Q 3153 47 2828 -22 
Q 2503 -91 2169 -91 
Q 1331 -91 842 396 
Q 353 884 353 1716 
Q 353 2575 817 3079 
Q 1281 3584 2069 3584 
Q 2775 3584 3186 3129 
Q 3597 2675 3597 1894 
z
M 3022 2063 
Q 3016 2534 2758 2815 
Q 2500 3097 2075 3097 
Q 1594 3097 1305 2825 
Q 1016 2553 972 2059 
L 3022 2063 
z
" transform="scale(0.015625)"/>
       </defs>
       <use xlink:href="#DejaVuSans-26"/>
       <use xlink:href="#DejaVuSans-44" transform="translate(69.828125 0)"/>
       <use xlink:href="#DejaVuSans-55" transform="translate(131.109375 0)"/>
       <use xlink:href="#DejaVuSans-48" transform="translate(170.015625 0)"/>
      </g>
     </g>
    </g>
    <g id="xtick_2">
     <g id="line2d_2">
      <g>
       <use xlink:href="#mf91fa581e5" x="210.608774" y="302.091763" style="stroke: #000000; stroke-width: 0.8"/>
      </g>
     </g>
     <g id="text_2">
      <!-- Sanctity -->
      <g transform="translate(181.346127 330.696115) rotate(-30) scale(0.08 -0.08)">
       <defs>
        <path id="DejaVuSans-36" d="M 3425 4513 
L 3425 3897 
Q 3066 4069 2747 4153 
Q 2428 4238 2131 4238 
Q 1616 4238 1336 4038 
Q 1056 3838 1056 3469 
Q 1056 3159 1242 3001 
Q 1428 2844 1947 2747 
L 2328 2669 
Q 3034 2534 3370 2195 
Q 3706 1856 3706 1288 
Q 3706 609 3251 259 
Q 2797 -91 1919 -91 
Q 1588 -91 1214 -16 
Q 841 59 441 206 
L 441 856 
Q 825 641 1194 531 
Q 1563 422 1919 422 
Q 2459 422 2753 634 
Q 3047 847 3047 1241 
Q 3047 1584 2836 1778 
Q 2625 1972 2144 2069 
L 1759 2144 
Q 1053 2284 737 2584 
Q 422 2884 422 3419 
Q 422 4038 858 4394 
Q 1294 4750 2059 4750 
Q 2388 4750 2728 4690 
Q 3069 4631 3425 4513 
z
" transform="scale(0.015625)"/>
        <path id="DejaVuSans-51" d="M 3513 2113 
L 3513 0 
L 2938 0 
L 2938 2094 
Q 2938 2591 2744 2837 
Q 2550 3084 2163 3084 
Q 1697 3084 1428 2787 
Q 1159 2491 1159 1978 
L 1159 0 
L 581 0 
L 581 3500 
L 1159 3500 
L 1159 2956 
Q 1366 3272 1645 3428 
Q 1925 3584 2291 3584 
Q 2894 3584 3203 3211 
Q 3513 2838 3513 2113 
z
" transform="scale(0.015625)"/>
        <path id="DejaVuSans-46" d="M 3122 3366 
L 3122 2828 
Q 2878 2963 2633 3030 
Q 2388 3097 2138 3097 
Q 1578 3097 1268 2742 
Q 959 2388 959 1747 
Q 959 1106 1268 751 
Q 1578 397 2138 397 
Q 2388 397 2633 464 
Q 2878 531 3122 666 
L 3122 134 
Q 2881 22 2623 -34 
Q 2366 -91 2075 -91 
Q 1284 -91 818 406 
Q 353 903 353 1747 
Q 353 2603 823 3093 
Q 1294 3584 2113 3584 
Q 2378 3584 2631 3529 
Q 2884 3475 3122 3366 
z
" transform="scale(0.015625)"/>
        <path id="DejaVuSans-57" d="M 1172 4494 
L 1172 3500 
L 2356 3500 
L 2356 3053 
L 1172 3053 
L 1172 1153 
Q 1172 725 1289 603 
Q 1406 481 1766 481 
L 2356 481 
L 2356 0 
L 1766 0 
Q 1100 0 847 248 
Q 594 497 594 1153 
L 594 3053 
L 172 3053 
L 172 3500 
L 594 3500 
L 594 4494 
L 1172 4494 
z
" transform="scale(0.015625)"/>
        <path id="DejaVuSans-4c" d="M 603 3500 
L 1178 3500 
L 1178 0 
L 603 0 
L 603 3500 
z
M 603 4863 
L 1178 4863 
L 1178 4134 
L 603 4134 
L 603 4863 
z
" transform="scale(0.015625)"/>
        <path id="DejaVuSans-5c" d="M 2059 -325 
Q 1816 -950 1584 -1140 
Q 1353 -1331 966 -1331 
L 506 -1331 
L 506 -850 
L 844 -850 
Q 1081 -850 1212 -737 
Q 1344 -625 1503 -206 
L 1606 56 
L 191 3500 
L 800 3500 
L 1894 763 
L 2988 3500 
L 3597 3500 
L 2059 -325 
z
" transform="scale(0.015625)"/>
       </defs>
       <use xlink:href="#DejaVuSans-36"/>
       <use xlink:href="#DejaVuSans-44" transform="translate(63.484375 0)"/>
       <use xlink:href="#DejaVuSans-51" transform="translate(124.765625 0)"/>
       <use xlink:href="#DejaVuSans-46" transform="translate(188.140625 0)"/>
       <use xlink:href="#DejaVuSans-57" transform="translate(243.125 0)"/>
       <use xlink:href="#DejaVuSans-4c" transform="translate(282.328125 0)"/>
       <use xlink:href="#DejaVuSans-57" transform="translate(310.109375 0)"/>
       <use xlink:href="#DejaVuSans-5c" transform="translate(349.3125 0)"/>
      </g>
     </g>
    </g>
    <g id="xtick_3">
     <g id="line2d_3">
      <g>
       <use xlink:href="#mf91fa581e5" x="331.484123" y="302.091763" style="stroke: #000000; stroke-width: 0.8"/>
      </g>
     </g>
     <g id="text_3">
      <!-- Authority -->
      <g transform="translate(298.457512 332.86924) rotate(-30) scale(0.08 -0.08)">
       <defs>
        <path id="DejaVuSans-24" d="M 2188 4044 
L 1331 1722 
L 3047 1722 
L 2188 4044 
z
M 1831 4666 
L 2547 4666 
L 4325 0 
L 3669 0 
L 3244 1197 
L 1141 1197 
L 716 0 
L 50 0 
L 1831 4666 
z
" transform="scale(0.015625)"/>
        <path id="DejaVuSans-58" d="M 544 1381 
L 544 3500 
L 1119 3500 
L 1119 1403 
Q 1119 906 1312 657 
Q 1506 409 1894 409 
Q 2359 409 2629 706 
Q 2900 1003 2900 1516 
L 2900 3500 
L 3475 3500 
L 3475 0 
L 2900 0 
L 2900 538 
Q 2691 219 2414 64 
Q 2138 -91 1772 -91 
Q 1169 -91 856 284 
Q 544 659 544 1381 
z
M 1991 3584 
L 1991 3584 
z
" transform="scale(0.015625)"/>
        <path id="DejaVuSans-4b" d="M 3513 2113 
L 3513 0 
L 2938 0 
L 2938 2094 
Q 2938 2591 2744 2837 
Q 2550 3084 2163 3084 
Q 1697 3084 1428 2787 
Q 1159 2491 1159 1978 
L 1159 0 
L 581 0 
L 581 4863 
L 1159 4863 
L 1159 2956 
Q 1366 3272 1645 3428 
Q 1925 3584 2291 3584 
Q 2894 3584 3203 3211 
Q 3513 2838 3513 2113 
z
" transform="scale(0.015625)"/>
        <path id="DejaVuSans-52" d="M 1959 3097 
Q 1497 3097 1228 2736 
Q 959 2375 959 1747 
Q 959 1119 1226 758 
Q 1494 397 1959 397 
Q 2419 397 2687 759 
Q 2956 1122 2956 1747 
Q 2956 2369 2687 2733 
Q 2419 3097 1959 3097 
z
M 1959 3584 
Q 2709 3584 3137 3096 
Q 3566 2609 3566 1747 
Q 3566 888 3137 398 
Q 2709 -91 1959 -91 
Q 1206 -91 779 398 
Q 353 888 353 1747 
Q 353 2609 779 3096 
Q 1206 3584 1959 3584 
z
" transform="scale(0.015625)"/>
       </defs>
       <use xlink:href="#DejaVuSans-24"/>
       <use xlink:href="#DejaVuSans-58" transform="translate(68.40625 0)"/>
       <use xlink:href="#DejaVuSans-57" transform="translate(131.78125 0)"/>
       <use xlink:href="#DejaVuSans-4b" transform="translate(170.984375 0)"/>
       <use xlink:href="#DejaVuSans-52" transform="translate(234.359375 0)"/>
       <use xlink:href="#DejaVuSans-55" transform="translate(295.546875 0)"/>
       <use xlink:href="#DejaVuSans-4c" transform="translate(336.65625 0)"/>
       <use xlink:href="#DejaVuSans-57" transform="translate(364.4375 0)"/>
       <use xlink:href="#DejaVuSans-5c" transform="translate(403.640625 0)"/>
      </g>
     </g>
    </g>
    <g id="xtick_4">
     <g id="line2d_4">
      <g>
       <use xlink:href="#mf91fa581e5" x="452.359471" y="302.091763" style="stroke: #000000; stroke-width: 0.8"/>
      </g>
     </g>
     <g id="text_4">
      <!-- Loyalty -->
      <g transform="translate(426.332511 328.82799) rotate(-30) scale(0.08 -0.08)">
       <defs>
        <path id="DejaVuSans-2f" d="M 628 4666 
L 1259 4666 
L 1259 531 
L 3531 531 
L 3531 0 
L 628 0 
L 628 4666 
z
" transform="scale(0.015625)"/>
        <path id="DejaVuSans-4f" d="M 603 4863 
L 1178 4863 
L 1178 0 
L 603 0 
L 603 4863 
z
" transform="scale(0.015625)"/>
       </defs>
       <use xlink:href="#DejaVuSans-2f"/>
       <use xlink:href="#DejaVuSans-52" transform="translate(53.96875 0)"/>
       <use xlink:href="#DejaVuSans-5c" transform="translate(115.15625 0)"/>
       <use xlink:href="#DejaVuSans-44" transform="translate(174.34375 0)"/>
       <use xlink:href="#DejaVuSans-4f" transform="translate(235.625 0)"/>
       <use xlink:href="#DejaVuSans-57" transform="translate(263.40625 0)"/>
       <use xlink:href="#DejaVuSans-5c" transform="translate(302.609375 0)"/>
      </g>
     </g>
    </g>
    <g id="xtick_5">
     <g id="line2d_5">
      <g>
       <use xlink:href="#mf91fa581e5" x="573.234819" y="302.091763" style="stroke: #000000; stroke-width: 0.8"/>
      </g>
     </g>
     <g id="text_5">
      <!-- Fairness -->
      <g transform="translate(544.155119 330.59049) rotate(-30) scale(0.08 -0.08)">
       <defs>
        <path id="DejaVuSans-29" d="M 628 4666 
L 3309 4666 
L 3309 4134 
L 1259 4134 
L 1259 2759 
L 3109 2759 
L 3109 2228 
L 1259 2228 
L 1259 0 
L 628 0 
L 628 4666 
z
" transform="scale(0.015625)"/>
        <path id="DejaVuSans-56" d="M 2834 3397 
L 2834 2853 
Q 2591 2978 2328 3040 
Q 2066 3103 1784 3103 
Q 1356 3103 1142 2972 
Q 928 2841 928 2578 
Q 928 2378 1081 2264 
Q 1234 2150 1697 2047 
L 1894 2003 
Q 2506 1872 2764 1633 
Q 3022 1394 3022 966 
Q 3022 478 2636 193 
Q 2250 -91 1575 -91 
Q 1294 -91 989 -36 
Q 684 19 347 128 
L 347 722 
Q 666 556 975 473 
Q 1284 391 1588 391 
Q 1994 391 2212 530 
Q 2431 669 2431 922 
Q 2431 1156 2273 1281 
Q 2116 1406 1581 1522 
L 1381 1569 
Q 847 1681 609 1914 
Q 372 2147 372 2553 
Q 372 3047 722 3315 
Q 1072 3584 1716 3584 
Q 2034 3584 2315 3537 
Q 2597 3491 2834 3397 
z
" transform="scale(0.015625)"/>
       </defs>
       <use xlink:href="#DejaVuSans-29"/>
       <use xlink:href="#DejaVuSans-44" transform="translate(48.34375 0)"/>
       <use xlink:href="#DejaVuSans-4c" transform="translate(109.625 0)"/>
       <use xlink:href="#DejaVuSans-55" transform="translate(137.40625 0)"/>
       <use xlink:href="#DejaVuSans-51" transform="translate(176.765625 0)"/>
       <use xlink:href="#DejaVuSans-48" transform="translate(240.140625 0)"/>
       <use xlink:href="#DejaVuSans-56" transform="translate(301.671875 0)"/>
       <use xlink:href="#DejaVuSans-56" transform="translate(353.765625 0)"/>
      </g>
     </g>
    </g>
    <g id="xtick_6">
     <g id="line2d_6">
      <g>
       <use xlink:href="#mf91fa581e5" x="694.110168" y="302.091763" style="stroke: #000000; stroke-width: 0.8"/>
      </g>
     </g>
     <g id="text_6">
      <!-- Liberty -->
      <g transform="translate(669.038 328.27674) rotate(-30) scale(0.08 -0.08)">
       <defs>
        <path id="DejaVuSans-45" d="M 3116 1747 
Q 3116 2381 2855 2742 
Q 2594 3103 2138 3103 
Q 1681 3103 1420 2742 
Q 1159 2381 1159 1747 
Q 1159 1113 1420 752 
Q 1681 391 2138 391 
Q 2594 391 2855 752 
Q 3116 1113 3116 1747 
z
M 1159 2969 
Q 1341 3281 1617 3432 
Q 1894 3584 2278 3584 
Q 2916 3584 3314 3078 
Q 3713 2572 3713 1747 
Q 3713 922 3314 415 
Q 2916 -91 2278 -91 
Q 1894 -91 1617 61 
Q 1341 213 1159 525 
L 1159 0 
L 581 0 
L 581 4863 
L 1159 4863 
L 1159 2969 
z
" transform="scale(0.015625)"/>
       </defs>
       <use xlink:href="#DejaVuSans-2f"/>
       <use xlink:href="#DejaVuSans-4c" transform="translate(55.71875 0)"/>
       <use xlink:href="#DejaVuSans-45" transform="translate(83.5 0)"/>
       <use xlink:href="#DejaVuSans-48" transform="translate(146.984375 0)"/>
       <use xlink:href="#DejaVuSans-55" transform="translate(208.515625 0)"/>
       <use xlink:href="#DejaVuSans-57" transform="translate(249.625 0)"/>
       <use xlink:href="#DejaVuSans-5c" transform="translate(288.828125 0)"/>
      </g>
     </g>
    </g>
   </g>
   <g id="matplotlib.axis_2">
    <g id="ytick_1">
     <g id="line2d_7">
      <path d="M 42.942969 282.788144 
L 740.900625 282.788144 
" clip-path="url(#p37906c9f16)" style="fill: none; stroke: #b0b0b0; stroke-opacity: 0.15; stroke-width: 0.8; stroke-linecap: square"/>
     </g>
     <g id="line2d_8">
      <defs>
       <path id="md4345c65bb" d="M 0 0 
L -3.5 0 
" style="stroke: #000000; stroke-width: 0.8"/>
      </defs>
      <g>
       <use xlink:href="#md4345c65bb" x="42.942969" y="282.788144" style="stroke: #000000; stroke-width: 0.8"/>
      </g>
     </g>
     <g id="text_7">
      <!-- −2 -->
      <g transform="translate(21.200781 286.586972) scale(0.1 -0.1)">
       <defs>
        <path id="DejaVuSans-c9c" d="M 678 2272 
L 4684 2272 
L 4684 1741 
L 678 1741 
L 678 2272 
z
" transform="scale(0.015625)"/>
        <path id="DejaVuSans-15" d="M 1228 531 
L 3431 531 
L 3431 0 
L 469 0 
L 469 531 
Q 828 903 1448 1529 
Q 2069 2156 2228 2338 
Q 2531 2678 2651 2914 
Q 2772 3150 2772 3378 
Q 2772 3750 2511 3984 
Q 2250 4219 1831 4219 
Q 1534 4219 1204 4116 
Q 875 4013 500 3803 
L 500 4441 
Q 881 4594 1212 4672 
Q 1544 4750 1819 4750 
Q 2544 4750 2975 4387 
Q 3406 4025 3406 3419 
Q 3406 3131 3298 2873 
Q 3191 2616 2906 2266 
Q 2828 2175 2409 1742 
Q 1991 1309 1228 531 
z
" transform="scale(0.015625)"/>
       </defs>
       <use xlink:href="#DejaVuSans-c9c"/>
       <use xlink:href="#DejaVuSans-15" transform="translate(83.796875 0)"/>
      </g>
     </g>
    </g>
    <g id="ytick_2">
     <g id="line2d_9">
      <path d="M 42.942969 228.945254 
L 740.900625 228.945254 
" clip-path="url(#p37906c9f16)" style="fill: none; stroke: #b0b0b0; stroke-opacity: 0.15; stroke-width: 0.8; stroke-linecap: square"/>
     </g>
     <g id="line2d_10">
      <g>
       <use xlink:href="#md4345c65bb" x="42.942969" y="228.945254" style="stroke: #000000; stroke-width: 0.8"/>
      </g>
     </g>
     <g id="text_8">
      <!-- −1 -->
      <g transform="translate(21.200781 232.744082) scale(0.1 -0.1)">
       <defs>
        <path id="DejaVuSans-14" d="M 794 531 
L 1825 531 
L 1825 4091 
L 703 3866 
L 703 4441 
L 1819 4666 
L 2450 4666 
L 2450 531 
L 3481 531 
L 3481 0 
L 794 0 
L 794 531 
z
" transform="scale(0.015625)"/>
       </defs>
       <use xlink:href="#DejaVuSans-c9c"/>
       <use xlink:href="#DejaVuSans-14" transform="translate(83.796875 0)"/>
      </g>
     </g>
    </g>
    <g id="ytick_3">
     <g id="line2d_11">
      <path d="M 42.942969 175.102364 
L 740.900625 175.102364 
" clip-path="url(#p37906c9f16)" style="fill: none; stroke: #b0b0b0; stroke-opacity: 0.15; stroke-width: 0.8; stroke-linecap: square"/>
     </g>
     <g id="line2d_12">
      <g>
       <use xlink:href="#md4345c65bb" x="42.942969" y="175.102364" style="stroke: #000000; stroke-width: 0.8"/>
      </g>
     </g>
     <g id="text_9">
      <!-- 0 -->
      <g transform="translate(29.580469 178.901192) scale(0.1 -0.1)">
       <defs>
        <path id="DejaVuSans-13" d="M 2034 4250 
Q 1547 4250 1301 3770 
Q 1056 3291 1056 2328 
Q 1056 1369 1301 889 
Q 1547 409 2034 409 
Q 2525 409 2770 889 
Q 3016 1369 3016 2328 
Q 3016 3291 2770 3770 
Q 2525 4250 2034 4250 
z
M 2034 4750 
Q 2819 4750 3233 4129 
Q 3647 3509 3647 2328 
Q 3647 1150 3233 529 
Q 2819 -91 2034 -91 
Q 1250 -91 836 529 
Q 422 1150 422 2328 
Q 422 3509 836 4129 
Q 1250 4750 2034 4750 
z
" transform="scale(0.015625)"/>
       </defs>
       <use xlink:href="#DejaVuSans-13"/>
      </g>
     </g>
    </g>
    <g id="ytick_4">
     <g id="line2d_13">
      <path d="M 42.942969 121.259474 
L 740.900625 121.259474 
" clip-path="url(#p37906c9f16)" style="fill: none; stroke: #b0b0b0; stroke-opacity: 0.15; stroke-width: 0.8; stroke-linecap: square"/>
     </g>
     <g id="line2d_14">
      <g>
       <use xlink:href="#md4345c65bb" x="42.942969" y="121.259474" style="stroke: #000000; stroke-width: 0.8"/>
      </g>
     </g>
     <g id="text_10">
      <!-- 1 -->
      <g transform="translate(29.580469 125.058302) scale(0.1 -0.1)">
       <use xlink:href="#DejaVuSans-14"/>
      </g>
     </g>
    </g>
    <g id="ytick_5">
     <g id="line2d_15">
      <path d="M 42.942969 67.416584 
L 740.900625 67.416584 
" clip-path="url(#p37906c9f16)" style="fill: none; stroke: #b0b0b0; stroke-opacity: 0.15; stroke-width: 0.8; stroke-linecap: square"/>
     </g>
     <g id="line2d_16">
      <g>
       <use xlink:href="#md4345c65bb" x="42.942969" y="67.416584" style="stroke: #000000; stroke-width: 0.8"/>
      </g>
     </g>
     <g id="text_11">
      <!-- 2 -->
      <g transform="translate(29.580469 71.215413) scale(0.1 -0.1)">
       <use xlink:href="#DejaVuSans-15"/>
      </g>
     </g>
    </g>
    <g id="text_12">
     <!-- relative emphasis  (z across foundations) -->
     <g transform="translate(14.798438 271.098754) rotate(-90) scale(0.1 -0.1)">
      <defs>
       <path id="DejaVuSans-59" d="M 191 3500 
L 800 3500 
L 1894 563 
L 2988 3500 
L 3597 3500 
L 2284 0 
L 1503 0 
L 191 3500 
z
" transform="scale(0.015625)"/>
       <path id="DejaVuSans-3" transform="scale(0.015625)"/>
       <path id="DejaVuSans-50" d="M 3328 2828 
Q 3544 3216 3844 3400 
Q 4144 3584 4550 3584 
Q 5097 3584 5394 3201 
Q 5691 2819 5691 2113 
L 5691 0 
L 5113 0 
L 5113 2094 
Q 5113 2597 4934 2840 
Q 4756 3084 4391 3084 
Q 3944 3084 3684 2787 
Q 3425 2491 3425 1978 
L 3425 0 
L 2847 0 
L 2847 2094 
Q 2847 2600 2669 2842 
Q 2491 3084 2119 3084 
Q 1678 3084 1418 2786 
Q 1159 2488 1159 1978 
L 1159 0 
L 581 0 
L 581 3500 
L 1159 3500 
L 1159 2956 
Q 1356 3278 1631 3431 
Q 1906 3584 2284 3584 
Q 2666 3584 2933 3390 
Q 3200 3197 3328 2828 
z
" transform="scale(0.015625)"/>
       <path id="DejaVuSans-53" d="M 1159 525 
L 1159 -1331 
L 581 -1331 
L 581 3500 
L 1159 3500 
L 1159 2969 
Q 1341 3281 1617 3432 
Q 1894 3584 2278 3584 
Q 2916 3584 3314 3078 
Q 3713 2572 3713 1747 
Q 3713 922 3314 415 
Q 2916 -91 2278 -91 
Q 1894 -91 1617 61 
Q 1341 213 1159 525 
z
M 3116 1747 
Q 3116 2381 2855 2742 
Q 2594 3103 2138 3103 
Q 1681 3103 1420 2742 
Q 1159 2381 1159 1747 
Q 1159 1113 1420 752 
Q 1681 391 2138 391 
Q 2594 391 2855 752 
Q 3116 1113 3116 1747 
z
" transform="scale(0.015625)"/>
       <path id="DejaVuSans-b" d="M 1984 4856 
Q 1566 4138 1362 3434 
Q 1159 2731 1159 2009 
Q 1159 1288 1364 580 
Q 1569 -128 1984 -844 
L 1484 -844 
Q 1016 -109 783 600 
Q 550 1309 550 2009 
Q 550 2706 781 3412 
Q 1013 4119 1484 4856 
L 1984 4856 
z
" transform="scale(0.015625)"/>
       <path id="DejaVuSans-5d" d="M 353 3500 
L 3084 3500 
L 3084 2975 
L 922 459 
L 3084 459 
L 3084 0 
L 275 0 
L 275 525 
L 2438 3041 
L 353 3041 
L 353 3500 
z
" transform="scale(0.015625)"/>
       <path id="DejaVuSans-49" d="M 2375 4863 
L 2375 4384 
L 1825 4384 
Q 1516 4384 1395 4259 
Q 1275 4134 1275 3809 
L 1275 3500 
L 2222 3500 
L 2222 3053 
L 1275 3053 
L 1275 0 
L 697 0 
L 697 3053 
L 147 3053 
L 147 3500 
L 697 3500 
L 697 3744 
Q 697 4328 969 4595 
Q 1241 4863 1831 4863 
L 2375 4863 
z
" transform="scale(0.015625)"/>
       <path id="DejaVuSans-47" d="M 2906 2969 
L 2906 4863 
L 3481 4863 
L 3481 0 
L 2906 0 
L 2906 525 
Q 2725 213 2448 61 
Q 2172 -91 1784 -91 
Q 1150 -91 751 415 
Q 353 922 353 1747 
Q 353 2572 751 3078 
Q 1150 3584 1784 3584 
Q 2172 3584 2448 3432 
Q 2725 3281 2906 2969 
z
M 947 1747 
Q 947 1113 1208 752 
Q 1469 391 1925 391 
Q 2381 391 2643 752 
Q 2906 1113 2906 1747 
Q 2906 2381 2643 2742 
Q 2381 3103 1925 3103 
Q 1469 3103 1208 2742 
Q 947 2381 947 1747 
z
" transform="scale(0.015625)"/>
       <path id="DejaVuSans-c" d="M 513 4856 
L 1013 4856 
Q 1481 4119 1714 3412 
Q 1947 2706 1947 2009 
Q 1947 1309 1714 600 
Q 1481 -109 1013 -844 
L 513 -844 
Q 928 -128 1133 580 
Q 1338 1288 1338 2009 
Q 1338 2731 1133 3434 
Q 928 4138 513 4856 
z
" transform="scale(0.015625)"/>
      </defs>
      <use xlink:href="#DejaVuSans-55"/>
      <use xlink:href="#DejaVuSans-48" transform="translate(38.90625 0)"/>
      <use xlink:href="#DejaVuSans-4f" transform="translate(100.4375 0)"/>
      <use xlink:href="#DejaVuSans-44" transform="translate(128.21875 0)"/>
      <use xlink:href="#DejaVuSans-57" transform="translate(189.5 0)"/>
      <use xlink:href="#DejaVuSans-4c" transform="translate(228.703125 0)"/>
      <use xlink:href="#DejaVuSans-59" transform="translate(256.484375 0)"/>
      <use xlink:href="#DejaVuSans-48" transform="translate(315.671875 0)"/>
      <use xlink:href="#DejaVuSans-3" transform="translate(377.203125 0)"/>
      <use xlink:href="#DejaVuSans-48" transform="translate(408.984375 0)"/>
      <use xlink:href="#DejaVuSans-50" transform="translate(470.515625 0)"/>
      <use xlink:href="#DejaVuSans-53" transform="translate(567.921875 0)"/>
      <use xlink:href="#DejaVuSans-4b" transform="translate(631.40625 0)"/>
      <use xlink:href="#DejaVuSans-44" transform="translate(694.78125 0)"/>
      <use xlink:href="#DejaVuSans-56" transform="translate(756.0625 0)"/>
      <use xlink:href="#DejaVuSans-4c" transform="translate(808.15625 0)"/>
      <use xlink:href="#DejaVuSans-56" transform="translate(835.9375 0)"/>
      <use xlink:href="#DejaVuSans-3" transform="translate(888.03125 0)"/>
      <use xlink:href="#DejaVuSans-3" transform="translate(919.8125 0)"/>
      <use xlink:href="#DejaVuSans-b" transform="translate(951.59375 0)"/>
      <use xlink:href="#DejaVuSans-5d" transform="translate(990.609375 0)"/>
      <use xlink:href="#DejaVuSans-3" transform="translate(1043.09375 0)"/>
      <use xlink:href="#DejaVuSans-44" transform="translate(1074.875 0)"/>
      <use xlink:href="#DejaVuSans-46" transform="translate(1136.15625 0)"/>
      <use xlink:href="#DejaVuSans-55" transform="translate(1191.140625 0)"/>
      <use xlink:href="#DejaVuSans-52" transform="translate(1230.046875 0)"/>
      <use xlink:href="#DejaVuSans-56" transform="translate(1291.234375 0)"/>
      <use xlink:href="#DejaVuSans-56" transform="translate(1343.328125 0)"/>
      <use xlink:href="#DejaVuSans-3" transform="translate(1395.421875 0)"/>
      <use xlink:href="#DejaVuSans-49" transform="translate(1427.203125 0)"/>
      <use xlink:href="#DejaVuSans-52" transform="translate(1462.40625 0)"/>
      <use xlink:href="#DejaVuSans-58" transform="translate(1523.59375 0)"/>
      <use xlink:href="#DejaVuSans-51" transform="translate(1586.96875 0)"/>
      <use xlink:href="#DejaVuSans-47" transform="translate(1650.34375 0)"/>
      <use xlink:href="#DejaVuSans-44" transform="translate(1713.828125 0)"/>
      <use xlink:href="#DejaVuSans-57" transform="translate(1775.109375 0)"/>
      <use xlink:href="#DejaVuSans-4c" transform="translate(1814.3125 0)"/>
      <use xlink:href="#DejaVuSans-52" transform="translate(1842.09375 0)"/>
      <use xlink:href="#DejaVuSans-51" transform="translate(1903.28125 0)"/>
      <use xlink:href="#DejaVuSans-56" transform="translate(1966.65625 0)"/>
      <use xlink:href="#DejaVuSans-c" transform="translate(2018.75 0)"/>
     </g>
    </g>
   </g>
   <g id="patch_3">
    <path d="M 42.942969 302.091763 
L 42.942969 34.329182 
" style="fill: none; stroke: #000000; stroke-width: 0.8; stroke-linejoin: miter; stroke-linecap: square"/>
   </g>
   <g id="patch_4">
    <path d="M 42.942969 302.091763 
L 740.900625 302.091763 
" style="fill: none; stroke: #000000; stroke-width: 0.8; stroke-linejoin: miter; stroke-linecap: square"/>
   </g>
   <g id="PathCollection_1">
    <defs>
     <path id="m621bdbe835" d="M 0 2.44949 
C 0.649612 2.44949 1.272706 2.191396 1.732051 1.732051 
C 2.191396 1.272706 2.44949 0.649612 2.44949 0 
C 2.44949 -0.649612 2.191396 -1.272706 1.732051 -1.732051 
C 1.272706 -2.191396 0.649612 -2.44949 0 -2.44949 
C -0.649612 -2.44949 -1.272706 -2.191396 -1.732051 -1.732051 
C -2.191396 -1.272706 -2.44949 -0.649612 -2.44949 0 
C -2.44949 0.649612 -2.191396 1.272706 -1.732051 1.732051 
C -1.272706 2.191396 -0.649612 2.44949 0 2.44949 
z
" style="stroke: #ffffff; stroke-opacity: 0.9; stroke-width: 0.3"/>
    </defs>
    <g clip-path="url(#p37906c9f16)">
     <use xlink:href="#m621bdbe835" x="78.185063" y="142.968838" style="fill: #616161; fill-opacity: 0.9; stroke: #ffffff; stroke-opacity: 0.9; stroke-width: 0.3"/>
     <use xlink:href="#m621bdbe835" x="73.603654" y="134.733823" style="fill: #616161; fill-opacity: 0.9; stroke: #ffffff; stroke-opacity: 0.9; stroke-width: 0.3"/>
     <use xlink:href="#m621bdbe835" x="70.748648" y="130.5517" style="fill: #616161; fill-opacity: 0.9; stroke: #ffffff; stroke-opacity: 0.9; stroke-width: 0.3"/>
     <use xlink:href="#m621bdbe835" x="70.443625" y="122.472686" style="fill: #616161; fill-opacity: 0.9; stroke: #ffffff; stroke-opacity: 0.9; stroke-width: 0.3"/>
     <use xlink:href="#m621bdbe835" x="80.384945" y="108.296794" style="fill: #616161; fill-opacity: 0.9; stroke: #ffffff; stroke-opacity: 0.9; stroke-width: 0.3"/>
    </g>
   </g>
   <g id="PathCollection_2">
    <g clip-path="url(#p37906c9f16)">
     <use xlink:href="#m621bdbe835" x="202.501617" y="190.975228" style="fill: #616161; fill-opacity: 0.9; stroke: #ffffff; stroke-opacity: 0.9; stroke-width: 0.3"/>
     <use xlink:href="#m621bdbe835" x="198.682021" y="190.139415" style="fill: #616161; fill-opacity: 0.9; stroke: #ffffff; stroke-opacity: 0.9; stroke-width: 0.3"/>
     <use xlink:href="#m621bdbe835" x="200.215011" y="164.047898" style="fill: #616161; fill-opacity: 0.9; stroke: #ffffff; stroke-opacity: 0.9; stroke-width: 0.3"/>
     <use xlink:href="#m621bdbe835" x="197.895807" y="159.643143" style="fill: #616161; fill-opacity: 0.9; stroke: #ffffff; stroke-opacity: 0.9; stroke-width: 0.3"/>
     <use xlink:href="#m621bdbe835" x="202.780075" y="111.664736" style="fill: #616161; fill-opacity: 0.9; stroke: #ffffff; stroke-opacity: 0.9; stroke-width: 0.3"/>
    </g>
   </g>
   <g id="PathCollection_3">
    <g clip-path="url(#p37906c9f16)">
     <use xlink:href="#m621bdbe835" x="322.167875" y="237.442601" style="fill: #616161; fill-opacity: 0.9; stroke: #ffffff; stroke-opacity: 0.9; stroke-width: 0.3"/>
     <use xlink:href="#m621bdbe835" x="312.022268" y="226.285907" style="fill: #616161; fill-opacity: 0.9; stroke: #ffffff; stroke-opacity: 0.9; stroke-width: 0.3"/>
     <use xlink:href="#m621bdbe835" x="322.686322" y="212.345032" style="fill: #616161; fill-opacity: 0.9; stroke: #ffffff; stroke-opacity: 0.9; stroke-width: 0.3"/>
     <use xlink:href="#m621bdbe835" x="312.407161" y="206.146598" style="fill: #616161; fill-opacity: 0.9; stroke: #ffffff; stroke-opacity: 0.9; stroke-width: 0.3"/>
     <use xlink:href="#m621bdbe835" x="321.092342" y="198.247652" style="fill: #616161; fill-opacity: 0.9; stroke: #ffffff; stroke-opacity: 0.9; stroke-width: 0.3"/>
    </g>
   </g>
   <g id="PathCollection_4">
    <g clip-path="url(#p37906c9f16)">
     <use xlink:href="#m621bdbe835" x="435.055182" y="281.008095" style="fill: #616161; fill-opacity: 0.9; stroke: #ffffff; stroke-opacity: 0.9; stroke-width: 0.3"/>
     <use xlink:href="#m621bdbe835" x="443.633724" y="257.321077" style="fill: #616161; fill-opacity: 0.9; stroke: #ffffff; stroke-opacity: 0.9; stroke-width: 0.3"/>
     <use xlink:href="#m621bdbe835" x="439.619505" y="252.292392" style="fill: #616161; fill-opacity: 0.9; stroke: #ffffff; stroke-opacity: 0.9; stroke-width: 0.3"/>
     <use xlink:href="#m621bdbe835" x="436.603089" y="247.489601" style="fill: #616161; fill-opacity: 0.9; stroke: #ffffff; stroke-opacity: 0.9; stroke-width: 0.3"/>
     <use xlink:href="#m621bdbe835" x="438.137508" y="246.917472" style="fill: #616161; fill-opacity: 0.9; stroke: #ffffff; stroke-opacity: 0.9; stroke-width: 0.3"/>
    </g>
   </g>
   <g id="PathCollection_5">
    <g clip-path="url(#p37906c9f16)">
     <use xlink:href="#m621bdbe835" x="554.092153" y="137.809855" style="fill: #616161; fill-opacity: 0.9; stroke: #ffffff; stroke-opacity: 0.9; stroke-width: 0.3"/>
     <use xlink:href="#m621bdbe835" x="555.289534" y="118.567692" style="fill: #616161; fill-opacity: 0.9; stroke: #ffffff; stroke-opacity: 0.9; stroke-width: 0.3"/>
     <use xlink:href="#m621bdbe835" x="562.106482" y="115.339158" style="fill: #616161; fill-opacity: 0.9; stroke: #ffffff; stroke-opacity: 0.9; stroke-width: 0.3"/>
     <use xlink:href="#m621bdbe835" x="561.814074" y="93.61125" style="fill: #616161; fill-opacity: 0.9; stroke: #ffffff; stroke-opacity: 0.9; stroke-width: 0.3"/>
     <use xlink:href="#m621bdbe835" x="561.417236" y="89.655034" style="fill: #616161; fill-opacity: 0.9; stroke: #ffffff; stroke-opacity: 0.9; stroke-width: 0.3"/>
    </g>
   </g>
   <g id="PathCollection_6">
    <g clip-path="url(#p37906c9f16)">
     <use xlink:href="#m621bdbe835" x="679.401463" y="211.501802" style="fill: #616161; fill-opacity: 0.9; stroke: #ffffff; stroke-opacity: 0.9; stroke-width: 0.3"/>
     <use xlink:href="#m621bdbe835" x="687.056786" y="198.834619" style="fill: #616161; fill-opacity: 0.9; stroke: #ffffff; stroke-opacity: 0.9; stroke-width: 0.3"/>
     <use xlink:href="#m621bdbe835" x="686.852473" y="180.923158" style="fill: #616161; fill-opacity: 0.9; stroke: #ffffff; stroke-opacity: 0.9; stroke-width: 0.3"/>
     <use xlink:href="#m621bdbe835" x="683.167963" y="157.237558" style="fill: #616161; fill-opacity: 0.9; stroke: #ffffff; stroke-opacity: 0.9; stroke-width: 0.3"/>
     <use xlink:href="#m621bdbe835" x="682.73022" y="128.600105" style="fill: #616161; fill-opacity: 0.9; stroke: #ffffff; stroke-opacity: 0.9; stroke-width: 0.3"/>
    </g>
   </g>
   <g id="line2d_17">
    <path d="M 64.778516 130.5517 
L 88.173744 130.5517 
" clip-path="url(#p37906c9f16)" style="fill: none; stroke: #262626; stroke-width: 1.5; stroke-linecap: square"/>
   </g>
   <g id="line2d_18">
    <path d="M 185.653864 164.047898 
L 209.049093 164.047898 
" clip-path="url(#p37906c9f16)" style="fill: none; stroke: #262626; stroke-width: 1.5; stroke-linecap: square"/>
   </g>
   <g id="line2d_19">
    <path d="M 306.529212 212.345032 
L 329.924441 212.345032 
" clip-path="url(#p37906c9f16)" style="fill: none; stroke: #262626; stroke-width: 1.5; stroke-linecap: square"/>
   </g>
   <g id="line2d_20">
    <path d="M 427.40456 252.292392 
L 450.799789 252.292392 
" clip-path="url(#p37906c9f16)" style="fill: none; stroke: #262626; stroke-width: 1.5; stroke-linecap: square"/>
   </g>
   <g id="line2d_21">
    <path d="M 548.279909 115.339158 
L 571.675137 115.339158 
" clip-path="url(#p37906c9f16)" style="fill: none; stroke: #262626; stroke-width: 1.5; stroke-linecap: square"/>
   </g>
   <g id="line2d_22">
    <path d="M 669.155257 180.923158 
L 692.550486 180.923158 
" clip-path="url(#p37906c9f16)" style="fill: none; stroke: #262626; stroke-width: 1.5; stroke-linecap: square"/>
   </g>
   <g id="text_13">
    <!-- Argentina -->
    <g style="fill: #404040" transform="translate(59.403239 104.999866) scale(0.07 -0.07)">
     <defs>
      <path id="DejaVuSans-4a" d="M 2906 1791 
Q 2906 2416 2648 2759 
Q 2391 3103 1925 3103 
Q 1463 3103 1205 2759 
Q 947 2416 947 1791 
Q 947 1169 1205 825 
Q 1463 481 1925 481 
Q 2391 481 2648 825 
Q 2906 1169 2906 1791 
z
M 3481 434 
Q 3481 -459 3084 -895 
Q 2688 -1331 1869 -1331 
Q 1566 -1331 1297 -1286 
Q 1028 -1241 775 -1147 
L 775 -588 
Q 1028 -725 1275 -790 
Q 1522 -856 1778 -856 
Q 2344 -856 2625 -561 
Q 2906 -266 2906 331 
L 2906 616 
Q 2728 306 2450 153 
Q 2172 0 1784 0 
Q 1141 0 747 490 
Q 353 981 353 1791 
Q 353 2603 747 3093 
Q 1141 3584 1784 3584 
Q 2172 3584 2450 3431 
Q 2728 3278 2906 2969 
L 2906 3500 
L 3481 3500 
L 3481 434 
z
" transform="scale(0.015625)"/>
     </defs>
     <use xlink:href="#DejaVuSans-24"/>
     <use xlink:href="#DejaVuSans-55" transform="translate(68.40625 0)"/>
     <use xlink:href="#DejaVuSans-4a" transform="translate(107.765625 0)"/>
     <use xlink:href="#DejaVuSans-48" transform="translate(171.25 0)"/>
     <use xlink:href="#DejaVuSans-51" transform="translate(232.78125 0)"/>
     <use xlink:href="#DejaVuSans-57" transform="translate(296.15625 0)"/>
     <use xlink:href="#DejaVuSans-4c" transform="translate(335.359375 0)"/>
     <use xlink:href="#DejaVuSans-51" transform="translate(363.140625 0)"/>
     <use xlink:href="#DejaVuSans-44" transform="translate(426.515625 0)"/>
    </g>
   </g>
   <g id="text_14">
    <!-- US -->
    <g style="fill: #404040" transform="translate(71.692614 149.902484) scale(0.07 -0.07)">
     <defs>
      <path id="DejaVuSans-38" d="M 556 4666 
L 1191 4666 
L 1191 1831 
Q 1191 1081 1462 751 
Q 1734 422 2344 422 
Q 2950 422 3222 751 
Q 3494 1081 3494 1831 
L 3494 4666 
L 4128 4666 
L 4128 1753 
Q 4128 841 3676 375 
Q 3225 -91 2344 -91 
Q 1459 -91 1007 375 
Q 556 841 556 1753 
L 556 4666 
z
" transform="scale(0.015625)"/>
     </defs>
     <use xlink:href="#DejaVuSans-38"/>
     <use xlink:href="#DejaVuSans-36" transform="translate(73.1875 0)"/>
    </g>
   </g>
   <g id="text_15">
    <!-- US -->
    <g style="fill: #404040" transform="translate(192.567963 108.367809) scale(0.07 -0.07)">
     <use xlink:href="#DejaVuSans-38"/>
     <use xlink:href="#DejaVuSans-36" transform="translate(73.1875 0)"/>
    </g>
   </g>
   <g id="text_16">
    <!-- Argentina -->
    <g style="fill: #404040" transform="translate(180.278588 197.909421) scale(0.07 -0.07)">
     <use xlink:href="#DejaVuSans-24"/>
     <use xlink:href="#DejaVuSans-55" transform="translate(68.40625 0)"/>
     <use xlink:href="#DejaVuSans-4a" transform="translate(107.765625 0)"/>
     <use xlink:href="#DejaVuSans-48" transform="translate(171.25 0)"/>
     <use xlink:href="#DejaVuSans-51" transform="translate(232.78125 0)"/>
     <use xlink:href="#DejaVuSans-57" transform="translate(296.15625 0)"/>
     <use xlink:href="#DejaVuSans-4c" transform="translate(335.359375 0)"/>
     <use xlink:href="#DejaVuSans-51" transform="translate(363.140625 0)"/>
     <use xlink:href="#DejaVuSans-44" transform="translate(426.515625 0)"/>
    </g>
   </g>
   <g id="text_17">
    <!-- Japan -->
    <g style="fill: #404040" transform="translate(308.464561 194.950725) scale(0.07 -0.07)">
     <defs>
      <path id="DejaVuSans-2d" d="M 628 4666 
L 1259 4666 
L 1259 325 
Q 1259 -519 939 -900 
Q 619 -1281 -91 -1281 
L -331 -1281 
L -331 -750 
L -134 -750 
Q 284 -750 456 -515 
Q 628 -281 628 325 
L 628 4666 
z
" transform="scale(0.015625)"/>
     </defs>
     <use xlink:href="#DejaVuSans-2d"/>
     <use xlink:href="#DejaVuSans-44" transform="translate(29.5 0)"/>
     <use xlink:href="#DejaVuSans-53" transform="translate(90.78125 0)"/>
     <use xlink:href="#DejaVuSans-44" transform="translate(154.265625 0)"/>
     <use xlink:href="#DejaVuSans-51" transform="translate(215.546875 0)"/>
    </g>
   </g>
   <g id="text_18">
    <!-- Argentina -->
    <g style="fill: #404040" transform="translate(301.153936 244.376794) scale(0.07 -0.07)">
     <use xlink:href="#DejaVuSans-24"/>
     <use xlink:href="#DejaVuSans-55" transform="translate(68.40625 0)"/>
     <use xlink:href="#DejaVuSans-4a" transform="translate(107.765625 0)"/>
     <use xlink:href="#DejaVuSans-48" transform="translate(171.25 0)"/>
     <use xlink:href="#DejaVuSans-51" transform="translate(232.78125 0)"/>
     <use xlink:href="#DejaVuSans-57" transform="translate(296.15625 0)"/>
     <use xlink:href="#DejaVuSans-4c" transform="translate(335.359375 0)"/>
     <use xlink:href="#DejaVuSans-51" transform="translate(363.140625 0)"/>
     <use xlink:href="#DejaVuSans-44" transform="translate(426.515625 0)"/>
    </g>
   </g>
   <g id="text_19">
    <!-- Peru -->
    <g style="fill: #404040" transform="translate(431.305925 243.620544) scale(0.07 -0.07)">
     <defs>
      <path id="DejaVuSans-33" d="M 1259 4147 
L 1259 2394 
L 2053 2394 
Q 2494 2394 2734 2622 
Q 2975 2850 2975 3272 
Q 2975 3691 2734 3919 
Q 2494 4147 2053 4147 
L 1259 4147 
z
M 628 4666 
L 2053 4666 
Q 2838 4666 3239 4311 
Q 3641 3956 3641 3272 
Q 3641 2581 3239 2228 
Q 2838 1875 2053 1875 
L 1259 1875 
L 1259 0 
L 628 0 
L 628 4666 
z
" transform="scale(0.015625)"/>
     </defs>
     <use xlink:href="#DejaVuSans-33"/>
     <use xlink:href="#DejaVuSans-48" transform="translate(56.734375 0)"/>
     <use xlink:href="#DejaVuSans-55" transform="translate(118.265625 0)"/>
     <use xlink:href="#DejaVuSans-58" transform="translate(159.375 0)"/>
    </g>
   </g>
   <g id="text_20">
    <!-- Japan -->
    <g style="fill: #404040" transform="translate(429.339909 287.941741) scale(0.07 -0.07)">
     <use xlink:href="#DejaVuSans-2d"/>
     <use xlink:href="#DejaVuSans-44" transform="translate(29.5 0)"/>
     <use xlink:href="#DejaVuSans-53" transform="translate(90.78125 0)"/>
     <use xlink:href="#DejaVuSans-44" transform="translate(154.265625 0)"/>
     <use xlink:href="#DejaVuSans-51" transform="translate(215.546875 0)"/>
    </g>
   </g>
   <g id="text_21">
    <!-- Peru -->
    <g style="fill: #404040" transform="translate(552.181273 86.358107) scale(0.07 -0.07)">
     <use xlink:href="#DejaVuSans-33"/>
     <use xlink:href="#DejaVuSans-48" transform="translate(56.734375 0)"/>
     <use xlink:href="#DejaVuSans-55" transform="translate(118.265625 0)"/>
     <use xlink:href="#DejaVuSans-58" transform="translate(159.375 0)"/>
    </g>
   </g>
   <g id="text_22">
    <!-- Argentina -->
    <g style="fill: #404040" transform="translate(542.904632 144.744048) scale(0.07 -0.07)">
     <use xlink:href="#DejaVuSans-24"/>
     <use xlink:href="#DejaVuSans-55" transform="translate(68.40625 0)"/>
     <use xlink:href="#DejaVuSans-4a" transform="translate(107.765625 0)"/>
     <use xlink:href="#DejaVuSans-48" transform="translate(171.25 0)"/>
     <use xlink:href="#DejaVuSans-51" transform="translate(232.78125 0)"/>
     <use xlink:href="#DejaVuSans-57" transform="translate(296.15625 0)"/>
     <use xlink:href="#DejaVuSans-4c" transform="translate(335.359375 0)"/>
     <use xlink:href="#DejaVuSans-51" transform="translate(363.140625 0)"/>
     <use xlink:href="#DejaVuSans-44" transform="translate(426.515625 0)"/>
    </g>
   </g>
   <g id="text_23">
    <!-- Argentina -->
    <g style="fill: #404040" transform="translate(663.779981 125.303178) scale(0.07 -0.07)">
     <use xlink:href="#DejaVuSans-24"/>
     <use xlink:href="#DejaVuSans-55" transform="translate(68.40625 0)"/>
     <use xlink:href="#DejaVuSans-4a" transform="translate(107.765625 0)"/>
     <use xlink:href="#DejaVuSans-48" transform="translate(171.25 0)"/>
     <use xlink:href="#DejaVuSans-51" transform="translate(232.78125 0)"/>
     <use xlink:href="#DejaVuSans-57" transform="translate(296.15625 0)"/>
     <use xlink:href="#DejaVuSans-4c" transform="translate(335.359375 0)"/>
     <use xlink:href="#DejaVuSans-51" transform="translate(363.140625 0)"/>
     <use xlink:href="#DejaVuSans-44" transform="translate(426.515625 0)"/>
    </g>
   </g>
   <g id="text_24">
    <!-- Peru -->
    <g style="fill: #404040" transform="translate(673.056621 218.435448) scale(0.07 -0.07)">
     <use xlink:href="#DejaVuSans-33"/>
     <use xlink:href="#DejaVuSans-48" transform="translate(56.734375 0)"/>
     <use xlink:href="#DejaVuSans-55" transform="translate(118.265625 0)"/>
     <use xlink:href="#DejaVuSans-58" transform="translate(159.375 0)"/>
    </g>
   </g>
   <g id="line2d_23">
    <path d="M 94.412472 70.171417 
L 103.770563 79.039457 
" clip-path="url(#p37906c9f16)" style="fill: none; stroke: #2c6fbb; stroke-opacity: 0.9; stroke-width: 2; stroke-linecap: round"/>
   </g>
   <g id="line2d_24">
    <path d="M 103.770563 79.039457 
L 113.128655 86.645961 
" clip-path="url(#p37906c9f16)" style="fill: none; stroke: #c0392b; stroke-opacity: 0.9; stroke-width: 2; stroke-linecap: round"/>
   </g>
   <g id="line2d_25">
    <path d="M 215.28782 172.618092 
L 224.645912 194.079137 
" clip-path="url(#p37906c9f16)" style="fill: none; stroke: #2c6fbb; stroke-opacity: 0.9; stroke-width: 2; stroke-linecap: round"/>
   </g>
   <g id="line2d_26">
    <path d="M 224.645912 194.079137 
L 234.004003 194.913813 
" clip-path="url(#p37906c9f16)" style="fill: none; stroke: #c0392b; stroke-opacity: 0.9; stroke-width: 2; stroke-linecap: round"/>
   </g>
   <g id="line2d_27">
    <path d="M 336.163168 181.164954 
L 345.52126 154.423603 
" clip-path="url(#p37906c9f16)" style="fill: none; stroke: #2c6fbb; stroke-opacity: 0.9; stroke-width: 2; stroke-linecap: round"/>
   </g>
   <g id="line2d_28">
    <path d="M 345.52126 154.423603 
L 354.879351 140.995595 
" clip-path="url(#p37906c9f16)" style="fill: none; stroke: #c0392b; stroke-opacity: 0.9; stroke-width: 2; stroke-linecap: round"/>
   </g>
   <g id="line2d_29">
    <path d="M 457.038517 236.99788 
L 466.396608 246.229205 
" clip-path="url(#p37906c9f16)" style="fill: none; stroke: #2c6fbb; stroke-opacity: 0.9; stroke-width: 2; stroke-linecap: round"/>
   </g>
   <g id="line2d_30">
    <path d="M 466.396608 246.229205 
L 475.7547 252.654003 
" clip-path="url(#p37906c9f16)" style="fill: none; stroke: #c0392b; stroke-opacity: 0.9; stroke-width: 2; stroke-linecap: round"/>
   </g>
   <g id="line2d_31">
    <path d="M 577.913865 165.407939 
L 587.271957 157.078857 
" clip-path="url(#p37906c9f16)" style="fill: none; stroke: #2c6fbb; stroke-opacity: 0.9; stroke-width: 2; stroke-linecap: round"/>
   </g>
   <g id="line2d_32">
    <path d="M 587.271957 157.078857 
L 596.630048 158.700153 
" clip-path="url(#p37906c9f16)" style="fill: none; stroke: #c0392b; stroke-opacity: 0.9; stroke-width: 2; stroke-linecap: round"/>
   </g>
   <g id="line2d_33">
    <path d="M 698.789213 224.253901 
L 708.147305 219.763926 
" clip-path="url(#p37906c9f16)" style="fill: none; stroke: #2c6fbb; stroke-opacity: 0.9; stroke-width: 2; stroke-linecap: round"/>
   </g>
   <g id="line2d_34">
    <path d="M 708.147305 219.763926 
L 717.505396 216.704659 
" clip-path="url(#p37906c9f16)" style="fill: none; stroke: #c0392b; stroke-opacity: 0.9; stroke-width: 2; stroke-linecap: round"/>
   </g>
   <g id="line2d_35">
    <path d="M 91.449076 70.171417 
L 97.375868 70.171417 
" clip-path="url(#p37906c9f16)" style="fill: none; stroke: #2c6fbb; stroke-width: 2; stroke-linecap: square"/>
   </g>
   <g id="line2d_36">
    <path d="M 100.066319 79.039457 
L 107.474808 79.039457 
" clip-path="url(#p37906c9f16)" style="fill: none; stroke: #000000; stroke-width: 2; stroke-linecap: square"/>
   </g>
   <g id="line2d_37">
    <path d="M 110.165259 86.645961 
L 116.09205 86.645961 
" clip-path="url(#p37906c9f16)" style="fill: none; stroke: #c0392b; stroke-width: 2; stroke-linecap: square"/>
   </g>
   <g id="line2d_38">
    <path d="M 212.324425 172.618092 
L 218.251216 172.618092 
" clip-path="url(#p37906c9f16)" style="fill: none; stroke: #2c6fbb; stroke-width: 2; stroke-linecap: square"/>
   </g>
   <g id="line2d_39">
    <path d="M 220.941667 194.079137 
L 228.350156 194.079137 
" clip-path="url(#p37906c9f16)" style="fill: none; stroke: #000000; stroke-width: 2; stroke-linecap: square"/>
   </g>
   <g id="line2d_40">
    <path d="M 231.040608 194.913813 
L 236.967399 194.913813 
" clip-path="url(#p37906c9f16)" style="fill: none; stroke: #c0392b; stroke-width: 2; stroke-linecap: square"/>
   </g>
   <g id="line2d_41">
    <path d="M 333.199773 181.164954 
L 339.126564 181.164954 
" clip-path="url(#p37906c9f16)" style="fill: none; stroke: #2c6fbb; stroke-width: 2; stroke-linecap: square"/>
   </g>
   <g id="line2d_42">
    <path d="M 341.817015 154.423603 
L 349.225504 154.423603 
" clip-path="url(#p37906c9f16)" style="fill: none; stroke: #000000; stroke-width: 2; stroke-linecap: square"/>
   </g>
   <g id="line2d_43">
    <path d="M 351.915956 140.995595 
L 357.842747 140.995595 
" clip-path="url(#p37906c9f16)" style="fill: none; stroke: #c0392b; stroke-width: 2; stroke-linecap: square"/>
   </g>
   <g id="line2d_44">
    <path d="M 454.075121 236.99788 
L 460.001912 236.99788 
" clip-path="url(#p37906c9f16)" style="fill: none; stroke: #2c6fbb; stroke-width: 2; stroke-linecap: square"/>
   </g>
   <g id="line2d_45">
    <path d="M 462.692364 246.229205 
L 470.100853 246.229205 
" clip-path="url(#p37906c9f16)" style="fill: none; stroke: #000000; stroke-width: 2; stroke-linecap: square"/>
   </g>
   <g id="line2d_46">
    <path d="M 472.791304 252.654003 
L 478.718095 252.654003 
" clip-path="url(#p37906c9f16)" style="fill: none; stroke: #c0392b; stroke-width: 2; stroke-linecap: square"/>
   </g>
   <g id="line2d_47">
    <path d="M 574.950469 165.407939 
L 580.877261 165.407939 
" clip-path="url(#p37906c9f16)" style="fill: none; stroke: #2c6fbb; stroke-width: 2; stroke-linecap: square"/>
   </g>
   <g id="line2d_48">
    <path d="M 583.567712 157.078857 
L 590.976201 157.078857 
" clip-path="url(#p37906c9f16)" style="fill: none; stroke: #000000; stroke-width: 2; stroke-linecap: square"/>
   </g>
   <g id="line2d_49">
    <path d="M 593.666652 158.700153 
L 599.593444 158.700153 
" clip-path="url(#p37906c9f16)" style="fill: none; stroke: #c0392b; stroke-width: 2; stroke-linecap: square"/>
   </g>
   <g id="line2d_50">
    <path d="M 695.825818 224.253901 
L 701.752609 224.253901 
" clip-path="url(#p37906c9f16)" style="fill: none; stroke: #2c6fbb; stroke-width: 2; stroke-linecap: square"/>
   </g>
   <g id="line2d_51">
    <path d="M 704.44306 219.763926 
L 711.851549 219.763926 
" clip-path="url(#p37906c9f16)" style="fill: none; stroke: #000000; stroke-width: 2; stroke-linecap: square"/>
   </g>
   <g id="line2d_52">
    <path d="M 714.542001 216.704659 
L 720.468792 216.704659 
" clip-path="url(#p37906c9f16)" style="fill: none; stroke: #c0392b; stroke-width: 2; stroke-linecap: square"/>
   </g>
   <g id="text_25">
    <!-- c=+1 -->
    <g style="fill: #c0392b" transform="translate(368.916489 142.762001) scale(0.068 -0.068)">
     <defs>
      <path id="DejaVuSans-20" d="M 678 2906 
L 4684 2906 
L 4684 2381 
L 678 2381 
L 678 2906 
z
M 678 1631 
L 4684 1631 
L 4684 1100 
L 678 1100 
L 678 1631 
z
" transform="scale(0.015625)"/>
      <path id="DejaVuSans-e" d="M 2944 4013 
L 2944 2272 
L 4684 2272 
L 4684 1741 
L 2944 1741 
L 2944 0 
L 2419 0 
L 2419 1741 
L 678 1741 
L 678 2272 
L 2419 2272 
L 2419 4013 
L 2944 4013 
z
" transform="scale(0.015625)"/>
     </defs>
     <use xlink:href="#DejaVuSans-46"/>
     <use xlink:href="#DejaVuSans-20" transform="translate(54.984375 0)"/>
     <use xlink:href="#DejaVuSans-e" transform="translate(138.78125 0)"/>
     <use xlink:href="#DejaVuSans-14" transform="translate(222.578125 0)"/>
    </g>
   </g>
   <g id="text_26">
    <!-- c=-1 -->
    <g style="fill: #2c6fbb" transform="translate(368.916489 182.93136) scale(0.068 -0.068)">
     <defs>
      <path id="DejaVuSans-10" d="M 313 2009 
L 1997 2009 
L 1997 1497 
L 313 1497 
L 313 2009 
z
" transform="scale(0.015625)"/>
     </defs>
     <use xlink:href="#DejaVuSans-46"/>
     <use xlink:href="#DejaVuSans-20" transform="translate(54.984375 0)"/>
     <use xlink:href="#DejaVuSans-10" transform="translate(138.78125 0)"/>
     <use xlink:href="#DejaVuSans-14" transform="translate(174.859375 0)"/>
    </g>
   </g>
   <g id="line2d_53">
    <path d="M 60.879311 51.73375 
L 60.879311 43.700872 
L 92.072949 43.700872 
L 92.072949 51.73375 
" style="fill: none; stroke: #616161; stroke-width: 0.8; stroke-linecap: square"/>
   </g>
   <g id="text_27">
    <!-- human -->
    <g style="fill: #616161" transform="translate(62.029255 38.685963) scale(0.075 -0.075)">
     <defs>
      <path id="DejaVuSans-Bold-4b" d="M 4056 2131 
L 4056 0 
L 2931 0 
L 2931 347 
L 2931 1625 
Q 2931 2084 2911 2256 
Q 2891 2428 2841 2509 
Q 2775 2619 2662 2680 
Q 2550 2741 2406 2741 
Q 2056 2741 1856 2470 
Q 1656 2200 1656 1722 
L 1656 0 
L 538 0 
L 538 4863 
L 1656 4863 
L 1656 2988 
Q 1909 3294 2193 3439 
Q 2478 3584 2822 3584 
Q 3428 3584 3742 3212 
Q 4056 2841 4056 2131 
z
" transform="scale(0.015625)"/>
      <path id="DejaVuSans-Bold-58" d="M 500 1363 
L 500 3500 
L 1625 3500 
L 1625 3150 
Q 1625 2866 1622 2436 
Q 1619 2006 1619 1863 
Q 1619 1441 1641 1255 
Q 1663 1069 1716 984 
Q 1784 875 1895 815 
Q 2006 756 2150 756 
Q 2500 756 2700 1025 
Q 2900 1294 2900 1772 
L 2900 3500 
L 4019 3500 
L 4019 0 
L 2900 0 
L 2900 506 
Q 2647 200 2364 54 
Q 2081 -91 1741 -91 
Q 1134 -91 817 281 
Q 500 653 500 1363 
z
" transform="scale(0.015625)"/>
      <path id="DejaVuSans-Bold-50" d="M 3781 2919 
Q 3994 3244 4286 3414 
Q 4578 3584 4928 3584 
Q 5531 3584 5847 3212 
Q 6163 2841 6163 2131 
L 6163 0 
L 5038 0 
L 5038 1825 
Q 5041 1866 5042 1909 
Q 5044 1953 5044 2034 
Q 5044 2406 4934 2573 
Q 4825 2741 4581 2741 
Q 4263 2741 4089 2478 
Q 3916 2216 3909 1719 
L 3909 0 
L 2784 0 
L 2784 1825 
Q 2784 2406 2684 2573 
Q 2584 2741 2328 2741 
Q 2006 2741 1831 2477 
Q 1656 2213 1656 1722 
L 1656 0 
L 531 0 
L 531 3500 
L 1656 3500 
L 1656 2988 
Q 1863 3284 2130 3434 
Q 2397 3584 2719 3584 
Q 3081 3584 3359 3409 
Q 3638 3234 3781 2919 
z
" transform="scale(0.015625)"/>
      <path id="DejaVuSans-Bold-44" d="M 2106 1575 
Q 1756 1575 1579 1456 
Q 1403 1338 1403 1106 
Q 1403 894 1545 773 
Q 1688 653 1941 653 
Q 2256 653 2472 879 
Q 2688 1106 2688 1447 
L 2688 1575 
L 2106 1575 
z
M 3816 1997 
L 3816 0 
L 2688 0 
L 2688 519 
Q 2463 200 2181 54 
Q 1900 -91 1497 -91 
Q 953 -91 614 226 
Q 275 544 275 1050 
Q 275 1666 698 1953 
Q 1122 2241 2028 2241 
L 2688 2241 
L 2688 2328 
Q 2688 2594 2478 2717 
Q 2269 2841 1825 2841 
Q 1466 2841 1156 2769 
Q 847 2697 581 2553 
L 581 3406 
Q 941 3494 1303 3539 
Q 1666 3584 2028 3584 
Q 2975 3584 3395 3211 
Q 3816 2838 3816 1997 
z
" transform="scale(0.015625)"/>
      <path id="DejaVuSans-Bold-51" d="M 4056 2131 
L 4056 0 
L 2931 0 
L 2931 347 
L 2931 1631 
Q 2931 2084 2911 2256 
Q 2891 2428 2841 2509 
Q 2775 2619 2662 2680 
Q 2550 2741 2406 2741 
Q 2056 2741 1856 2470 
Q 1656 2200 1656 1722 
L 1656 0 
L 538 0 
L 538 3500 
L 1656 3500 
L 1656 2988 
Q 1909 3294 2193 3439 
Q 2478 3584 2822 3584 
Q 3428 3584 3742 3212 
Q 4056 2841 4056 2131 
z
" transform="scale(0.015625)"/>
     </defs>
     <use xlink:href="#DejaVuSans-Bold-4b"/>
     <use xlink:href="#DejaVuSans-Bold-58" transform="translate(71.1875 0)"/>
     <use xlink:href="#DejaVuSans-Bold-50" transform="translate(142.375 0)"/>
     <use xlink:href="#DejaVuSans-Bold-44" transform="translate(246.578125 0)"/>
     <use xlink:href="#DejaVuSans-Bold-51" transform="translate(314.0625 0)"/>
    </g>
   </g>
   <g id="line2d_54">
    <path d="M 95.972154 51.73375 
L 95.972154 43.700872 
L 111.568973 43.700872 
L 111.568973 51.73375 
" style="fill: none; stroke: #262626; stroke-width: 0.8; stroke-linecap: square"/>
   </g>
   <g id="text_28">
    <!-- AI -->
    <g style="fill: #262626" transform="translate(99.473298 38.685963) scale(0.075 -0.075)">
     <defs>
      <path id="DejaVuSans-Bold-24" d="M 3419 850 
L 1538 850 
L 1241 0 
L 31 0 
L 1759 4666 
L 3194 4666 
L 4922 0 
L 3713 0 
L 3419 850 
z
M 1838 1716 
L 3116 1716 
L 2478 3572 
L 1838 1716 
z
" transform="scale(0.015625)"/>
      <path id="DejaVuSans-Bold-2c" d="M 588 4666 
L 1791 4666 
L 1791 0 
L 588 0 
L 588 4666 
z
" transform="scale(0.015625)"/>
     </defs>
     <use xlink:href="#DejaVuSans-Bold-24"/>
     <use xlink:href="#DejaVuSans-Bold-2c" transform="translate(77.390625 0)"/>
    </g>
   </g>
  </g>
  <g id="text_29">
   <!-- Steered MFV vignettes: -Authority -->
   <g transform="translate(280.475625 15.558281) scale(0.11 -0.11)">
    <defs>
     <path id="DejaVuSans-30" d="M 628 4666 
L 1569 4666 
L 2759 1491 
L 3956 4666 
L 4897 4666 
L 4897 0 
L 4281 0 
L 4281 4097 
L 3078 897 
L 2444 897 
L 1241 4097 
L 1241 0 
L 628 0 
L 628 4666 
z
" transform="scale(0.015625)"/>
     <path id="DejaVuSans-39" d="M 1831 0 
L 50 4666 
L 709 4666 
L 2188 738 
L 3669 4666 
L 4325 4666 
L 2547 0 
L 1831 0 
z
" transform="scale(0.015625)"/>
     <path id="DejaVuSans-1d" d="M 750 794 
L 1409 794 
L 1409 0 
L 750 0 
L 750 794 
z
M 750 3309 
L 1409 3309 
L 1409 2516 
L 750 2516 
L 750 3309 
z
" transform="scale(0.015625)"/>
    </defs>
    <use xlink:href="#DejaVuSans-36"/>
    <use xlink:href="#DejaVuSans-57" transform="translate(63.484375 0)"/>
    <use xlink:href="#DejaVuSans-48" transform="translate(102.6875 0)"/>
    <use xlink:href="#DejaVuSans-48" transform="translate(164.21875 0)"/>
    <use xlink:href="#DejaVuSans-55" transform="translate(225.75 0)"/>
    <use xlink:href="#DejaVuSans-48" transform="translate(264.65625 0)"/>
    <use xlink:href="#DejaVuSans-47" transform="translate(326.1875 0)"/>
    <use xlink:href="#DejaVuSans-3" transform="translate(389.671875 0)"/>
    <use xlink:href="#DejaVuSans-30" transform="translate(421.453125 0)"/>
    <use xlink:href="#DejaVuSans-29" transform="translate(507.734375 0)"/>
    <use xlink:href="#DejaVuSans-39" transform="translate(565.25 0)"/>
    <use xlink:href="#DejaVuSans-3" transform="translate(633.65625 0)"/>
    <use xlink:href="#DejaVuSans-59" transform="translate(665.4375 0)"/>
    <use xlink:href="#DejaVuSans-4c" transform="translate(724.625 0)"/>
    <use xlink:href="#DejaVuSans-4a" transform="translate(752.40625 0)"/>
    <use xlink:href="#DejaVuSans-51" transform="translate(815.890625 0)"/>
    <use xlink:href="#DejaVuSans-48" transform="translate(879.265625 0)"/>
    <use xlink:href="#DejaVuSans-57" transform="translate(940.796875 0)"/>
    <use xlink:href="#DejaVuSans-57" transform="translate(980 0)"/>
    <use xlink:href="#DejaVuSans-48" transform="translate(1019.203125 0)"/>
    <use xlink:href="#DejaVuSans-56" transform="translate(1080.734375 0)"/>
    <use xlink:href="#DejaVuSans-1d" transform="translate(1132.828125 0)"/>
    <use xlink:href="#DejaVuSans-3" transform="translate(1166.515625 0)"/>
    <use xlink:href="#DejaVuSans-10" transform="translate(1198.296875 0)"/>
    <use xlink:href="#DejaVuSans-24" transform="translate(1232.171875 0)"/>
    <use xlink:href="#DejaVuSans-58" transform="translate(1300.578125 0)"/>
    <use xlink:href="#DejaVuSans-57" transform="translate(1363.953125 0)"/>
    <use xlink:href="#DejaVuSans-4b" transform="translate(1403.15625 0)"/>
    <use xlink:href="#DejaVuSans-52" transform="translate(1466.53125 0)"/>
    <use xlink:href="#DejaVuSans-55" transform="translate(1527.71875 0)"/>
    <use xlink:href="#DejaVuSans-4c" transform="translate(1568.828125 0)"/>
    <use xlink:href="#DejaVuSans-57" transform="translate(1596.609375 0)"/>
    <use xlink:href="#DejaVuSans-5c" transform="translate(1635.8125 0)"/>
   </g>
  </g>
 </g>
 <defs>
  <clipPath id="p37906c9f16">
   <rect x="42.942969" y="34.329182" width="697.957656" height="267.762581"/>
  </clipPath>
 </defs>
</svg>
